<mxfile host="app.diagrams.net" modified="2024-05-07T13:55:23.116Z" agent="Mozilla/5.0 (Windows NT 10.0; Win64; x64; rv:125.0) Gecko/20100101 Firefox/125.0" etag="FMyxDX8zEmfCAh311zOx" version="24.3.1" type="github">
  <diagram name="Seite-1" id="8oX-7nu69xEVpHodJw5y">
    <mxGraphModel dx="2373" dy="1255" grid="1" gridSize="10" guides="1" tooltips="1" connect="1" arrows="1" fold="1" page="1" pageScale="1" pageWidth="1100" pageHeight="850" math="0" shadow="0">
      <root>
        <mxCell id="0" />
        <mxCell id="1" parent="0" />
        <mxCell id="OIynQWRbufFzBbrqEs6u-1" value="" style="rounded=1;whiteSpace=wrap;html=1;fillColor=none;" vertex="1" parent="1">
          <mxGeometry x="240" y="100" width="180" height="180" as="geometry" />
        </mxCell>
        <mxCell id="RWMj_lE9c-KkNywdO_du-8" value="Benutzerdefinierte Geodaten" style="shape=cylinder3;whiteSpace=wrap;html=1;boundedLbl=1;backgroundOutline=1;size=15;fillColor=#f5f5f5;fontColor=#333333;strokeColor=#666666;" parent="1" vertex="1">
          <mxGeometry x="650" y="220" width="140" height="70" as="geometry" />
        </mxCell>
        <mxCell id="RWMj_lE9c-KkNywdO_du-10" value="SoRa Private API" style="rounded=0;whiteSpace=wrap;html=1;fillColor=#f5f5f5;fontColor=#333333;strokeColor=#666666;" parent="1" vertex="1">
          <mxGeometry x="20" y="55" width="120" height="40" as="geometry" />
        </mxCell>
        <mxCell id="RWMj_lE9c-KkNywdO_du-12" value="SoRa Public API" style="rounded=0;whiteSpace=wrap;html=1;fillColor=#f5f5f5;fontColor=#333333;strokeColor=#666666;" parent="1" vertex="1">
          <mxGeometry x="20" y="115" width="120" height="40" as="geometry" />
        </mxCell>
        <mxCell id="RWMj_lE9c-KkNywdO_du-13" value="SoRa User API" style="rounded=0;whiteSpace=wrap;html=1;fillColor=#f5f5f5;fontColor=#333333;strokeColor=#666666;" parent="1" vertex="1">
          <mxGeometry x="20" y="175" width="120" height="40" as="geometry" />
        </mxCell>
        <mxCell id="RWMj_lE9c-KkNywdO_du-14" value="Open Route Service API" style="rounded=0;whiteSpace=wrap;html=1;fillColor=#f5f5f5;fontColor=#333333;strokeColor=#666666;" parent="1" vertex="1">
          <mxGeometry x="270" y="340" width="120" height="40" as="geometry" />
        </mxCell>
        <mxCell id="RWMj_lE9c-KkNywdO_du-18" value="SoRa Geolinking API" style="rounded=0;whiteSpace=wrap;html=1;fillColor=#F5F5F5;strokeColor=#666666;" parent="1" vertex="1">
          <mxGeometry x="260" y="120" width="140" height="40" as="geometry" />
        </mxCell>
        <mxCell id="RWMj_lE9c-KkNywdO_du-20" value="Geobasis- / Geofachdaten" style="shape=cylinder3;whiteSpace=wrap;html=1;boundedLbl=1;backgroundOutline=1;size=15;fillColor=#f5f5f5;fontColor=#333333;strokeColor=#666666;" parent="1" vertex="1">
          <mxGeometry x="650" y="160" width="140" height="70" as="geometry" />
        </mxCell>
        <mxCell id="RWMj_lE9c-KkNywdO_du-22" value="IÖR Monitor" style="shape=cylinder3;whiteSpace=wrap;html=1;boundedLbl=1;backgroundOutline=1;size=15;fillColor=#f5f5f5;fontColor=#333333;strokeColor=#666666;" parent="1" vertex="1">
          <mxGeometry x="650" y="100" width="140" height="70" as="geometry" />
        </mxCell>
        <mxCell id="RWMj_lE9c-KkNywdO_du-25" value="meta data, linking jobs, geoprocessing" style="shape=cylinder3;whiteSpace=wrap;html=1;boundedLbl=1;backgroundOutline=1;size=15;fillColor=#f5f5f5;fontColor=#333333;strokeColor=#666666;" parent="1" vertex="1">
          <mxGeometry x="260" y="190" width="140" height="70" as="geometry" />
        </mxCell>
        <mxCell id="RWMj_lE9c-KkNywdO_du-26" value="" style="shape=curlyBracket;whiteSpace=wrap;html=1;rounded=1;flipH=1;labelPosition=right;verticalLabelPosition=middle;align=left;verticalAlign=middle;" parent="1" vertex="1">
          <mxGeometry x="820" y="100" width="20" height="190" as="geometry" />
        </mxCell>
        <mxCell id="RWMj_lE9c-KkNywdO_du-28" value="spatial data / indicators" style="text;html=1;strokeColor=none;fillColor=none;align=center;verticalAlign=middle;whiteSpace=wrap;rounded=0;" parent="1" vertex="1">
          <mxGeometry x="850" y="180" width="130" height="30" as="geometry" />
        </mxCell>
        <mxCell id="RWMj_lE9c-KkNywdO_du-30" value="&lt;div&gt;Verwaltung Metadaten,&lt;/div&gt;&lt;div&gt;Verwaltung und Durchführung von Anfrage-Jobs&lt;/div&gt;" style="text;html=1;strokeColor=none;fillColor=none;align=center;verticalAlign=middle;whiteSpace=wrap;rounded=0;" parent="1" vertex="1">
          <mxGeometry x="510" y="580" width="180" height="30" as="geometry" />
        </mxCell>
        <mxCell id="RWMj_lE9c-KkNywdO_du-35" value="Variante ohne WPS" style="text;html=1;strokeColor=none;fillColor=none;align=center;verticalAlign=middle;whiteSpace=wrap;rounded=0;fontStyle=1" parent="1" vertex="1">
          <mxGeometry x="235" y="20" width="190" height="30" as="geometry" />
        </mxCell>
        <mxCell id="RWMj_lE9c-KkNywdO_du-36" value="" style="line;strokeWidth=4;html=1;perimeter=backbonePerimeter;points=[];outlineConnect=0;" parent="1" vertex="1">
          <mxGeometry x="10" y="10" width="880" height="10" as="geometry" />
        </mxCell>
        <mxCell id="OIynQWRbufFzBbrqEs6u-4" value="" style="endArrow=classic;startArrow=classic;html=1;rounded=0;exitX=0.5;exitY=0;exitDx=0;exitDy=0;exitPerimeter=0;entryX=0.5;entryY=1;entryDx=0;entryDy=0;" edge="1" parent="1" source="RWMj_lE9c-KkNywdO_du-25" target="RWMj_lE9c-KkNywdO_du-18">
          <mxGeometry width="50" height="50" relative="1" as="geometry">
            <mxPoint x="520" y="470" as="sourcePoint" />
            <mxPoint x="570" y="420" as="targetPoint" />
          </mxGeometry>
        </mxCell>
        <mxCell id="OIynQWRbufFzBbrqEs6u-5" value="" style="endArrow=none;dashed=1;html=1;dashPattern=1 3;strokeWidth=2;rounded=0;" edge="1" parent="1">
          <mxGeometry width="50" height="50" relative="1" as="geometry">
            <mxPoint x="460" y="400" as="sourcePoint" />
            <mxPoint x="460" y="30" as="targetPoint" />
          </mxGeometry>
        </mxCell>
        <mxCell id="OIynQWRbufFzBbrqEs6u-6" value="" style="endArrow=none;dashed=1;html=1;dashPattern=1 3;strokeWidth=2;rounded=0;" edge="1" parent="1">
          <mxGeometry width="50" height="50" relative="1" as="geometry">
            <mxPoint x="599.5" y="400" as="sourcePoint" />
            <mxPoint x="599.5" y="30" as="targetPoint" />
          </mxGeometry>
        </mxCell>
        <mxCell id="OIynQWRbufFzBbrqEs6u-7" value="Konnektoren" style="text;html=1;strokeColor=none;fillColor=none;align=center;verticalAlign=middle;whiteSpace=wrap;rounded=0;fontStyle=1" vertex="1" parent="1">
          <mxGeometry x="460" y="30" width="140" height="30" as="geometry" />
        </mxCell>
        <mxCell id="OIynQWRbufFzBbrqEs6u-8" value="Datastores" style="text;html=1;strokeColor=none;fillColor=none;align=center;verticalAlign=middle;whiteSpace=wrap;rounded=0;fontStyle=1" vertex="1" parent="1">
          <mxGeometry x="600" y="30" width="220" height="30" as="geometry" />
        </mxCell>
      </root>
    </mxGraphModel>
  </diagram>
</mxfile>
